<svg width="27" height="27" viewBox="0 0 27 27" fill="none" xmlns="http://www.w3.org/2000/svg">
<path d="M1.26144 1.125H5.72709L8.71908 16.1888C8.82117 16.7067 9.10079 17.172 9.50899 17.5031C9.91719 17.8342 10.428 18.0101 10.9519 18H21.8034C22.3274 18.0101 22.8381 17.8342 23.2463 17.5031C23.6545 17.172 23.9342 16.7067 24.0363 16.1888L25.8225 6.75H6.8435M11.3092 23.625C11.3092 24.2463 10.8093 24.75 10.1927 24.75C9.57616 24.75 9.07633 24.2463 9.07633 23.625C9.07633 23.0037 9.57616 22.5 10.1927 22.5C10.8093 22.5 11.3092 23.0037 11.3092 23.625ZM23.5897 23.625C23.5897 24.2463 23.0899 24.75 22.4733 24.75C21.8567 24.75 21.3569 24.2463 21.3569 23.625C21.3569 23.0037 21.8567 22.5 22.4733 22.5C23.0899 22.5 23.5897 23.0037 23.5897 23.625Z" stroke="#ACC572" stroke-width="4" stroke-linecap="round" stroke-linejoin="round"/>
</svg>
