{
	"asset":{
		"generator":"Khronos glTF Blender I/O v4.0.44",
		"version":"2.0"
	},
	"scene":0,
	"scenes":[
		{
			"name":"Scene",
			"nodes":[
				5
			]
		}
	],
	"nodes":[
		{
			"mesh":0,
			"name":"g0",
			"rotation":[
				0,
				0,
				-0.1781647950410843,
				0.9840006828308105
			]
		},
		{
			"children":[
				0
			],
			"name":"Geom"
		},
		{
			"children":[
				1
			],
			"name":"baked_mesh"
		},
		{
			"children":[
				2
			],
			"name":"Geom.001"
		},
		{
			"name":"Materials"
		},
		{
			"children":[
				3,
				4
			],
			"name":"sticky_note",
			"rotation":[
				0.7071068286895752,
				0,
				0,
				0.7071068286895752
			]
		}
	],
	"materials":[
		{
			"doubleSided":true,
			"name":"g0",
			"normalTexture":{
				"index":0
			},
			"pbrMetallicRoughness":{
				"baseColorTexture":{
					"index":1
				},
				"metallicFactor":0,
				"roughnessFactor":0.8999999761581421
			}
		}
	],
	"meshes":[
		{
			"name":"g0",
			"primitives":[
				{
					"attributes":{
						"POSITION":0,
						"NORMAL":1,
						"TEXCOORD_0":2
					},
					"indices":3,
					"material":0
				}
			]
		}
	],
	"textures":[
		{
			"sampler":0,
			"source":0
		},
		{
			"sampler":0,
			"source":1
		}
	],
	"images":[
		{
			"mimeType":"image/png",
			"name":"texgen_0",
			"uri":"textures/texgen_0.png"
		},
		{
			"mimeType":"image/png",
			"name":"texgen_1",
			"uri":"textures/texgen_1.png"
		}
	],
	"accessors":[
		{
			"bufferView":0,
			"componentType":5126,
			"count":27667,
			"max":[
				0.2544613778591156,
				0.286408931016922,
				0.5800705552101135
			],
			"min":[
				-0.253819078207016,
				-0.289153516292572,
				-0.5955813527107239
			],
			"type":"VEC3"
		},
		{
			"bufferView":1,
			"componentType":5126,
			"count":27667,
			"type":"VEC3"
		},
		{
			"bufferView":2,
			"componentType":5126,
			"count":27667,
			"type":"VEC2"
		},
		{
			"bufferView":3,
			"componentType":5123,
			"count":150000,
			"type":"SCALAR"
		}
	],
	"bufferViews":[
		{
			"buffer":0,
			"byteLength":332004,
			"byteOffset":0,
			"target":34962
		},
		{
			"buffer":0,
			"byteLength":332004,
			"byteOffset":332004,
			"target":34962
		},
		{
			"buffer":0,
			"byteLength":221336,
			"byteOffset":664008,
			"target":34962
		},
		{
			"buffer":0,
			"byteLength":300000,
			"byteOffset":885344,
			"target":34963
		}
	],
	"samplers":[
		{
			"magFilter":9729,
			"minFilter":9987
		}
	],
	"buffers":[
		{
			"byteLength":1185344,
			"uri":"statue.bin"
		}
	]
}
