<svg width="30" height="31" viewBox="0 0 30 31" fill="none" xmlns="http://www.w3.org/2000/svg">
<path d="M15.2213 30.0833C13.2435 30.0833 11.3742 29.7005 9.61344 28.9349C7.85267 28.1693 6.31502 27.1241 5.00048 25.7995C3.68594 24.4748 2.64878 22.9253 1.889 21.151C1.12922 19.3767 0.749329 17.4931 0.749329 15.5C0.749329 13.4826 1.12922 11.5929 1.889 9.83073C2.64878 8.06857 3.68594 6.52517 5.00048 5.20052C6.31502 3.87587 7.85267 2.83073 9.61344 2.0651C11.3742 1.29948 13.2435 0.916664 15.2213 0.916664C17.2233 0.916664 19.0986 1.29948 20.8473 2.0651C22.596 2.83073 24.1277 3.87587 25.4422 5.20052C26.7567 6.52517 27.7939 8.06857 28.5537 9.83073C29.3135 11.5929 29.6934 13.4826 29.6934 15.5C29.6934 17.4931 29.3135 19.3767 28.5537 21.151C27.7939 22.9253 26.7567 24.4748 25.4422 25.7995C24.1277 27.1241 22.596 28.1693 20.8473 28.9349C19.0986 29.7005 17.2233 30.0833 15.2213 30.0833ZM15.2213 27.0937C15.8485 26.2187 16.3912 25.3073 16.8494 24.3594C17.3077 23.4115 17.6816 22.4028 17.971 21.3333H12.4717C12.7611 22.4028 13.135 23.4115 13.5932 24.3594C14.0515 25.3073 14.5942 26.2187 15.2213 27.0937ZM11.4586 26.5104C11.0245 25.7083 10.6446 24.8759 10.3189 24.013C9.99333 23.1502 9.72198 22.2569 9.5049 21.3333H5.23565C5.93513 22.5486 6.80948 23.6059 7.8587 24.5052C8.90792 25.4045 10.1079 26.0729 11.4586 26.5104ZM18.9841 26.5104C20.3348 26.0729 21.5348 25.4045 22.584 24.5052C23.6332 23.6059 24.5075 22.5486 25.207 21.3333H20.9378C20.7207 22.2569 20.4494 23.1502 20.1237 24.013C19.7981 24.8759 19.4182 25.7083 18.9841 26.5104ZM4.00553 18.4167H8.92602C8.85366 17.9306 8.79938 17.4505 8.7632 16.9766C8.72702 16.5026 8.70893 16.0104 8.70893 15.5C8.70893 14.9896 8.72702 14.4974 8.7632 14.0234C8.79938 13.5495 8.85366 13.0694 8.92602 12.5833H4.00553C3.88493 13.0694 3.79448 13.5495 3.73418 14.0234C3.67388 14.4974 3.64373 14.9896 3.64373 15.5C3.64373 16.0104 3.67388 16.5026 3.73418 16.9766C3.79448 17.4505 3.88493 17.9306 4.00553 18.4167ZM11.8204 18.4167H18.6223C18.6946 17.9306 18.7489 17.4505 18.7851 16.9766C18.8213 16.5026 18.8393 16.0104 18.8393 15.5C18.8393 14.9896 18.8213 14.4974 18.7851 14.0234C18.7489 13.5495 18.6946 13.0694 18.6223 12.5833H11.8204C11.7481 13.0694 11.6938 13.5495 11.6576 14.0234C11.6214 14.4974 11.6033 14.9896 11.6033 15.5C11.6033 16.0104 11.6214 16.5026 11.6576 16.9766C11.6938 17.4505 11.7481 17.9306 11.8204 18.4167ZM21.5167 18.4167H26.4371C26.5577 17.9306 26.6482 17.4505 26.7085 16.9766C26.7688 16.5026 26.7989 16.0104 26.7989 15.5C26.7989 14.9896 26.7688 14.4974 26.7085 14.0234C26.6482 13.5495 26.5577 13.0694 26.4371 12.5833H21.5167C21.589 13.0694 21.6433 13.5495 21.6795 14.0234C21.7157 14.4974 21.7337 14.9896 21.7337 15.5C21.7337 16.0104 21.7157 16.5026 21.6795 16.9766C21.6433 17.4505 21.589 17.9306 21.5167 18.4167ZM20.9378 9.66666H25.207C24.5075 8.45139 23.6332 7.39409 22.584 6.49479C21.5348 5.59548 20.3348 4.92708 18.9841 4.48958C19.4182 5.29166 19.7981 6.12413 20.1237 6.98698C20.4494 7.84982 20.7207 8.74305 20.9378 9.66666ZM12.4717 9.66666H17.971C17.6816 8.59722 17.3077 7.58854 16.8494 6.64062C16.3912 5.69271 15.8485 4.78125 15.2213 3.90625C14.5942 4.78125 14.0515 5.69271 13.5932 6.64062C13.135 7.58854 12.7611 8.59722 12.4717 9.66666ZM5.23565 9.66666H9.5049C9.72198 8.74305 9.99333 7.84982 10.3189 6.98698C10.6446 6.12413 11.0245 5.29166 11.4586 4.48958C10.1079 4.92708 8.90792 5.59548 7.8587 6.49479C6.80948 7.39409 5.93513 8.45139 5.23565 9.66666Z" fill="#ACC572"/>
</svg>
